<svg width="25" height="25" viewBox="0 0 25 25" fill="none" xmlns="http://www.w3.org/2000/svg">
<path d="M12.8197 22.323C11.446 22.323 10.155 22.0588 8.9468 21.5305C7.73858 21.0021 6.6876 20.2856 5.79385 19.3811C4.9001 18.4765 4.19271 17.412 3.67169 16.1876C3.15067 14.9632 2.88982 13.6557 2.88916 12.265C2.8885 10.8743 3.14934 9.56676 3.67169 8.34237C4.19404 7.11797 4.90142 6.0535 5.79385 5.14894C6.68627 4.24439 7.73726 3.52792 8.9468 2.99954C10.1563 2.47116 11.4473 2.20697 12.8197 2.20697C14.1921 2.20697 15.4831 2.47116 16.6926 2.99954C17.9022 3.52792 18.9532 4.24439 19.8456 5.14894C20.738 6.0535 21.4457 7.11797 21.9687 8.34237C22.4917 9.56676 22.7523 10.8743 22.7503 12.265V13.7234C22.7503 14.7125 22.4153 15.555 21.7453 16.251C21.0753 16.947 20.2517 17.2947 19.2746 17.294C18.6953 17.294 18.1491 17.1683 17.636 16.9168C17.123 16.6654 16.6926 16.305 16.3451 15.8356C15.8651 16.3217 15.3229 16.6865 14.7184 16.9299C14.114 17.1733 13.4811 17.2947 12.8197 17.294C11.446 17.294 10.2752 16.8035 9.30728 15.8225C8.33938 14.8415 7.8551 13.6557 7.85444 12.265C7.85378 10.8743 8.33806 9.68847 9.30728 8.70747C10.2765 7.72648 11.4473 7.23598 12.8197 7.23598C14.1921 7.23598 15.3633 7.72648 16.3331 8.70747C17.303 9.68847 17.787 10.8743 17.785 12.265V13.7234C17.785 14.1593 17.9257 14.5281 18.207 14.8298C18.4884 15.1315 18.8443 15.2824 19.2746 15.2824C19.7049 15.2824 20.0607 15.1315 20.3421 14.8298C20.6235 14.5281 20.7642 14.1593 20.7642 13.7234V12.265C20.7642 10.0187 19.9945 8.11606 18.4553 6.55707C16.9161 4.99807 15.0375 4.21858 12.8197 4.21858C10.6019 4.21858 8.72336 4.99807 7.18413 6.55707C5.64489 8.11606 4.87527 10.0187 4.87527 12.265C4.87527 14.5113 5.64489 16.4139 7.18413 17.9729C8.72336 19.5319 10.6019 20.3114 12.8197 20.3114H17.785V22.323H12.8197ZM12.8197 15.2824C13.6473 15.2824 14.3507 14.989 14.93 14.4023C15.5092 13.8156 15.7989 13.1032 15.7989 12.265C15.7989 11.4268 15.5092 10.7144 14.93 10.1277C14.3507 9.54095 13.6473 9.24759 12.8197 9.24759C11.9922 9.24759 11.2888 9.54095 10.7095 10.1277C10.1302 10.7144 9.84055 11.4268 9.84055 12.265C9.84055 13.1032 10.1302 13.8156 10.7095 14.4023C11.2888 14.989 11.9922 15.2824 12.8197 15.2824Z" fill="black" fill-opacity="0.75"/>
</svg>
