<svg width="27" height="27" viewBox="0 0 27 27" fill="none" xmlns="http://www.w3.org/2000/svg">
<path d="M1.90906 13.5C1.90906 10.4138 3.13503 7.45409 5.31727 5.27184C7.49951 3.0896 10.4593 1.86363 13.5454 1.86363C16.6316 1.86363 19.5913 3.0896 21.7736 5.27184C23.9558 7.45409 25.1818 10.4138 25.1818 13.5V20.9036C25.1818 22.1371 25.1818 22.7509 24.9985 23.244C24.8528 23.6347 24.6247 23.9896 24.3299 24.2844C24.035 24.5793 23.6802 24.8074 23.2894 24.9531C22.7963 25.1364 22.1811 25.1364 20.9491 25.1364H13.5454C10.4593 25.1364 7.49951 23.9104 5.31727 21.7281C3.13503 19.5459 1.90906 16.5862 1.90906 13.5Z" stroke="#092444" stroke-opacity="0.75" stroke-width="2.90909"/>
<path d="M9.18176 12.0454H17.909M13.5454 17.8636H17.909" stroke="#092444" stroke-opacity="0.75" stroke-width="2.90909" stroke-linecap="round" stroke-linejoin="round"/>
</svg>
