<svg width="27" height="27" viewBox="0 0 27 27" fill="none" xmlns="http://www.w3.org/2000/svg">
<path d="M11.9457 11.7472C11.4492 12.2503 11.1703 12.9326 11.1704 13.6439C11.1705 14.3553 11.4497 15.0375 11.9464 15.5404C12.4431 16.0433 13.1167 16.3258 13.8191 16.3257C14.5214 16.3256 15.195 16.0428 15.6915 15.5397" stroke="black" stroke-opacity="0.75" stroke-width="2" stroke-linecap="round" stroke-linejoin="round"/>
<path d="M20.0175 19.909C18.1606 21.0871 16.0106 21.7045 13.8195 21.6886C11.5786 21.6886 9.51321 21.0958 7.62344 19.9101C3.14915 17.103 3.14848 10.181 7.62283 7.37398V7.37398M11.4097 5.83711C12.2028 5.67398 13.0102 5.5931 13.8195 5.59572C17.2623 5.59572 20.2907 6.99491 22.9046 9.79328C24.9194 11.9502 24.9182 15.3323 22.9053 17.491V17.491M1.90283 1.57251L25.7362 25.7118" stroke="black" stroke-opacity="0.75" stroke-width="2" stroke-linecap="round" stroke-linejoin="round"/>
</svg>
