<svg width="41" height="41" viewBox="0 0 41 41" fill="none" xmlns="http://www.w3.org/2000/svg">
<path d="M9.94942 6.2048L20.5001 16.7555L30.9961 6.25946C31.2279 6.01269 31.5072 5.81528 31.8172 5.67907C32.1272 5.54287 32.4615 5.47066 32.8001 5.4668C33.525 5.4668 34.2202 5.75477 34.7328 6.26737C35.2454 6.77997 35.5334 7.47521 35.5334 8.20013C35.5398 8.53524 35.4776 8.86812 35.3507 9.17834C35.2238 9.48856 35.0348 9.76957 34.7954 10.0041L24.1628 20.5001L34.7954 31.1328C35.2459 31.5735 35.5101 32.1703 35.5334 32.8001C35.5334 33.5251 35.2454 34.2203 34.7328 34.7329C34.2202 35.2455 33.525 35.5335 32.8001 35.5335C32.4517 35.5479 32.1042 35.4898 31.7795 35.3627C31.4548 35.2357 31.1601 35.0425 30.9141 34.7955L20.5001 24.2448L9.97675 34.7681C9.7458 35.0067 9.4699 35.1971 9.16496 35.3285C8.86002 35.4598 8.53209 35.5295 8.20009 35.5335C7.47516 35.5335 6.77993 35.2455 6.26733 34.7329C5.75473 34.2203 5.46675 33.5251 5.46675 32.8001C5.46038 32.465 5.52256 32.1321 5.64946 31.8219C5.77637 31.5117 5.96533 31.2307 6.20475 30.9961L16.8374 20.5001L6.20475 9.86746C5.75426 9.42674 5.49009 8.82992 5.46675 8.20013C5.46675 7.47521 5.75473 6.77997 6.26733 6.26737C6.77993 5.75477 7.47516 5.4668 8.20009 5.4668C8.85609 5.475 9.48475 5.74013 9.94942 6.2048Z" fill="#350327" fill-opacity="0.8"/>
</svg>
