<svg width="41" height="41" viewBox="0 0 41 41" fill="none" xmlns="http://www.w3.org/2000/svg">
<path fill-rule="evenodd" clip-rule="evenodd" d="M13.3985 6.49492C16.8647 4.44321 18.5969 3.4165 20.5 3.4165C22.4031 3.4165 24.1353 4.4415 27.6015 6.49492L28.7735 7.1885C32.2397 9.24192 33.9719 10.2686 34.9235 11.9582C35.875 13.6494 35.875 15.6994 35.875 19.8063V21.1934C35.875 25.2985 35.875 27.352 34.9235 29.0415C33.9719 30.731 32.2397 31.7578 28.7735 33.8095L27.6015 34.5048C24.1353 36.5565 22.4031 37.5832 20.5 37.5832C18.5969 37.5832 16.8647 36.5582 13.3985 34.5048L12.2265 33.8095C8.76033 31.7595 7.02808 30.731 6.07654 29.0415C5.125 27.3503 5.125 25.3003 5.125 21.1934V19.8063C5.125 15.6994 5.125 13.6477 6.07654 11.9582C7.02808 10.2686 8.76033 9.24192 12.2265 7.1885L13.3985 6.49492ZM22.2083 27.3332C22.2083 27.7862 22.0283 28.2208 21.708 28.5411C21.3876 28.8615 20.9531 29.0415 20.5 29.0415C20.0469 29.0415 19.6124 28.8615 19.292 28.5411C18.9717 28.2208 18.7917 27.7862 18.7917 27.3332C18.7917 26.8801 18.9717 26.4456 19.292 26.1252C19.6124 25.8048 20.0469 25.6248 20.5 25.6248C20.9531 25.6248 21.3876 25.8048 21.708 26.1252C22.0283 26.4456 22.2083 26.8801 22.2083 27.3332ZM20.5 10.6769C20.8398 10.6769 21.1657 10.8119 21.406 11.0522C21.6463 11.2925 21.7812 11.6184 21.7812 11.9582V22.2082C21.7812 22.548 21.6463 22.8739 21.406 23.1142C21.1657 23.3544 20.8398 23.4894 20.5 23.4894C20.1602 23.4894 19.8343 23.3544 19.594 23.1142C19.3537 22.8739 19.2188 22.548 19.2188 22.2082V11.9582C19.2188 11.6184 19.3537 11.2925 19.594 11.0522C19.8343 10.8119 20.1602 10.6769 20.5 10.6769Z" fill="#350327" fill-opacity="0.8"/>
</svg>
