<svg width="31" height="31" viewBox="0 0 31 31" fill="none" xmlns="http://www.w3.org/2000/svg">
<path d="M27.3103 14.3371C27.8987 15.1166 27.8987 16.1689 27.3103 16.9471C25.4571 19.3975 21.0107 24.4429 15.8195 24.4429C10.6283 24.4429 6.18185 19.3975 4.32856 16.9471C4.04188 16.5741 3.88623 16.1148 3.88623 15.6421C3.88623 15.1693 4.04188 14.7101 4.32856 14.3371C6.18185 11.8867 10.6283 6.84131 15.8195 6.84131C21.0107 6.84131 25.4571 11.8867 27.3103 14.3371Z" stroke="black" stroke-opacity="0.75" stroke-width="2" stroke-linecap="round" stroke-linejoin="round"/>
<path d="M15.8197 19.4139C17.8763 19.4139 19.5436 17.7252 19.5436 15.6421C19.5436 13.559 17.8763 11.8704 15.8197 11.8704C13.763 11.8704 12.0957 13.559 12.0957 15.6421C12.0957 17.7252 13.763 19.4139 15.8197 19.4139Z" stroke="black" stroke-opacity="0.75" stroke-width="2" stroke-linecap="round" stroke-linejoin="round"/>
</svg>
