<svg width="25" height="25" viewBox="0 0 25 25" fill="none" xmlns="http://www.w3.org/2000/svg">
<path d="M12.8193 10.8762C13.2758 10.8762 13.7277 10.7851 14.1494 10.6082C14.5711 10.4313 14.9543 10.172 15.277 9.84511C15.5998 9.51822 15.8558 9.13015 16.0305 8.70304C16.2051 8.27594 16.295 7.81817 16.295 7.35588C16.295 6.89359 16.2051 6.43582 16.0305 6.00872C15.8558 5.58161 15.5998 5.19354 15.277 4.86665C14.9543 4.53976 14.5711 4.28045 14.1494 4.10354C13.7277 3.92663 13.2758 3.83557 12.8193 3.83557C11.8975 3.83557 11.0135 4.20646 10.3616 4.86665C9.70983 5.52683 9.34364 6.42224 9.34364 7.35588C9.34364 8.28952 9.70983 9.18493 10.3616 9.84511C11.0135 10.5053 11.8975 10.8762 12.8193 10.8762ZM3.88184 21.3365V21.94H21.7568V21.3365C21.7568 19.0835 21.7568 17.957 21.3239 17.0961C20.943 16.3391 20.3354 15.7236 19.588 15.3379C18.7379 14.8994 17.6257 14.8994 15.4013 14.8994H10.2374C8.01295 14.8994 6.90072 14.8994 6.05067 15.3379C5.30328 15.7236 4.69563 16.3391 4.31481 17.0961C3.88184 17.957 3.88184 19.0835 3.88184 21.3365Z" fill="black" fill-opacity="0.75" stroke="black" stroke-opacity="0.75" stroke-width="2" stroke-linecap="round" stroke-linejoin="round"/>
</svg>
