<svg width="18" height="18" viewBox="0 0 16 16" fill="none" xmlns="http://www.w3.org/2000/svg">
<path d="M7.49996 0.083252C7.83148 0.083252 8.14942 0.214948 8.38384 0.449369C8.61826 0.683789 8.74996 1.00173 8.74996 1.33325C8.74996 1.66477 8.61826 1.98272 8.38384 2.21714C8.14942 2.45156 7.83148 2.58325 7.49996 2.58325H3.33329C3.22279 2.58325 3.11681 2.62715 3.03866 2.70529C2.96052 2.78343 2.91663 2.88941 2.91663 2.99992V12.9999C2.91663 13.1104 2.96052 13.2164 3.03866 13.2945C3.11681 13.3727 3.22279 13.4166 3.33329 13.4166H7.08329C7.41481 13.4166 7.73276 13.5483 7.96718 13.7827C8.2016 14.0171 8.33329 14.3351 8.33329 14.6666C8.33329 14.9981 8.2016 15.316 7.96718 15.5505C7.73276 15.7849 7.41481 15.9166 7.08329 15.9166H3.33329C2.55974 15.9166 1.81788 15.6093 1.2709 15.0623C0.723917 14.5153 0.416626 13.7735 0.416626 12.9999V2.99992C0.416626 2.22637 0.723917 1.4845 1.2709 0.937524C1.81788 0.390543 2.55974 0.083252 3.33329 0.083252H7.49996ZM12.55 4.75825L14.9075 7.11658C15.1415 7.35096 15.273 7.66867 15.273 7.99992C15.273 8.33117 15.1415 8.64888 14.9075 8.88325L12.5508 11.2416C12.3163 11.4761 11.9983 11.6078 11.6666 11.6078C11.335 11.6078 11.017 11.4761 10.7825 11.2416C10.548 11.0071 10.4162 10.689 10.4162 10.3574C10.4162 10.0258 10.548 9.70775 10.7825 9.47325L11.0058 9.24992H7.49996C7.16844 9.24992 6.8505 9.11822 6.61608 8.8838C6.38166 8.64938 6.24996 8.33144 6.24996 7.99992C6.24996 7.6684 6.38166 7.35046 6.61608 7.11603C6.8505 6.88161 7.16844 6.74992 7.49996 6.74992H11.0058L10.7825 6.52659C10.6664 6.41047 10.5744 6.27264 10.5116 6.12096C10.4488 5.96927 10.4165 5.80671 10.4165 5.64254C10.4166 5.47837 10.4489 5.31582 10.5118 5.16417C10.5747 5.01251 10.6668 4.87472 10.7829 4.75867C10.899 4.64261 11.0368 4.55056 11.1885 4.48778C11.3402 4.42499 11.5028 4.39269 11.6669 4.39273C11.8311 4.39277 11.9936 4.42514 12.1453 4.488C12.2969 4.55086 12.4347 4.64297 12.5508 4.75909L12.55 4.75825Z" fill="white"/>
</svg>
