<svg width="19" height="19" viewBox="0 0 19 19" fill="none" xmlns="http://www.w3.org/2000/svg">
<path d="M17.6826 3.66819L11.8054 9.54544L17.6826 15.4227C17.9944 15.7344 18.1695 16.1573 18.1695 16.5981C18.1695 17.039 17.9944 17.4618 17.6826 17.7736C17.3709 18.0853 16.9481 18.2605 16.5072 18.2605C16.0663 18.2605 15.6435 18.0853 15.3317 17.7736L9.45447 11.8963L3.57722 17.7736C3.26547 18.0853 2.84265 18.2605 2.40177 18.2605C1.96089 18.2605 1.53807 18.0853 1.22632 17.7736C0.914572 17.4618 0.739434 17.039 0.739434 16.5981C0.739434 16.1573 0.914572 15.7344 1.22632 15.4227L7.10357 9.54544L1.22632 3.66819C0.914572 3.35644 0.739433 2.93362 0.739433 2.49274C0.739433 2.05186 0.914572 1.62904 1.22632 1.31729C1.53807 1.00554 1.96089 0.830402 2.40177 0.830402C2.84265 0.830402 3.26547 1.00554 3.57722 1.31729L9.45447 7.19454L15.3317 1.31729C15.6435 1.00554 16.0663 0.830402 16.5072 0.830402C16.9481 0.830402 17.3709 1.00554 17.6826 1.31729C17.9944 1.62904 18.1695 2.05186 18.1695 2.49274C18.1695 2.93362 17.9944 3.35644 17.6826 3.66819Z" fill="#350327" fill-opacity="0.8"/>
</svg>
