<svg width="25" height="27" viewBox="0 0 25 27" fill="none" xmlns="http://www.w3.org/2000/svg">
<path d="M16.1818 25.4091V15.7121C16.1818 15.3906 16.0541 15.0823 15.8268 14.855C15.5994 14.6277 15.2911 14.5 14.9697 14.5H10.1212C9.7997 14.5 9.4914 14.6277 9.26408 14.855C9.03676 15.0823 8.90906 15.3906 8.90906 15.7121V25.4091" stroke="#092444" stroke-opacity="0.75" stroke-width="2.90909" stroke-linecap="round" stroke-linejoin="round"/>
<path d="M1.63635 12.0757C1.63627 11.7231 1.71312 11.3747 1.86155 11.0548C2.00998 10.7349 2.22641 10.4513 2.49575 10.2236L10.9806 2.95211C11.4182 2.5823 11.9725 2.37941 12.5454 2.37941C13.1183 2.37941 13.6727 2.5823 14.1103 2.95211L22.5951 10.2236C22.8645 10.4513 23.0809 10.7349 23.2293 11.0548C23.3778 11.3747 23.4546 11.7231 23.4545 12.0757V22.9848C23.4545 23.6278 23.1991 24.2444 22.7445 24.699C22.2899 25.1537 21.6732 25.4091 21.0303 25.4091H4.0606C3.41765 25.4091 2.80103 25.1537 2.3464 24.699C1.89176 24.2444 1.63635 23.6278 1.63635 22.9848V12.0757Z" stroke="#092444" stroke-opacity="0.75" stroke-width="2.90909" stroke-linecap="round" stroke-linejoin="round"/>
</svg>
