<svg width="30" height="25" viewBox="0 0 30 25" fill="none" xmlns="http://www.w3.org/2000/svg">
<path d="M17.6479 8.66666C17.6479 9.52 16.9259 10.2182 16.0435 10.2182H1.60435C0.721958 10.2182 0 9.52 0 8.66666C0 7.81333 0.721958 7.11515 1.60435 7.11515H16.0435C16.9259 7.11515 17.6479 7.81333 17.6479 8.66666ZM0 2.4606C0 3.31394 0.721958 4.01212 1.60435 4.01212H16.0435C16.9259 4.01212 17.6479 3.31394 17.6479 2.4606C17.6479 1.60727 16.9259 0.909088 16.0435 0.909088H1.60435C0.721958 0.909088 0 1.60727 0 2.4606ZM11.2305 14.8727C11.2305 14.0194 10.5085 13.3212 9.62611 13.3212H1.60435C0.721958 13.3212 0 14.0194 0 14.8727C0 15.7261 0.721958 16.4242 1.60435 16.4242H9.62611C10.5085 16.4242 11.2305 15.7261 11.2305 14.8727ZM24.0813 11.568L25.2204 10.4664C25.3688 10.3226 25.5451 10.2085 25.7392 10.1306C25.9333 10.0528 26.1414 10.0127 26.3515 10.0127C26.5616 10.0127 26.7697 10.0528 26.9637 10.1306C27.1578 10.2085 27.3341 10.3226 27.4825 10.4664L28.6216 11.568C29.2473 12.1731 29.2473 13.1505 28.6216 13.7556L27.4825 14.8572L24.0813 11.568ZM22.9422 12.6696L14.6638 20.6754C14.5194 20.815 14.4392 21.0012 14.4392 21.2184V23.4061C14.4392 23.8405 14.7921 24.1818 15.2413 24.1818H17.5035C17.712 24.1818 17.9206 24.1042 18.065 23.9491L26.3435 15.9433L22.9422 12.6696Z" fill="#092444" fill-opacity="0.75"/>
</svg>
